<?xml version="1.0" encoding="UTF-8" standalone="no"?>
<svg width="100%" height="100%" viewBox="0 0 32 32" version="1.1" xmlns="http://www.w3.org/2000/svg" xmlns:xlink="http://www.w3.org/1999/xlink" xml:space="preserve" xmlns:serif="http://www.serif.com/" style="fill-rule:evenodd;clip-rule:evenodd;stroke-linejoin:round;stroke-miterlimit:2;">
    <g transform="matrix(1,0,0,1,-0.0078125,0)">
        <path d="M21.112,14.61L16.016,0L15.997,0C15.228,0.006 14.46,0.067 13.699,0.181L20.753,14.755C20.869,14.7 20.989,14.651 21.112,14.61Z" style="fill:rgb(0,167,181);fill-rule:nonzero;"/>
        <path d="M19.979,15.272L8.183,2.043C7.455,2.452 6.76,2.917 6.105,3.436L19.715,15.547C19.801,15.45 19.892,15.358 19.988,15.272" style="fill:rgb(0,167,181);fill-rule:nonzero;"/>
        <path d="M19.19,16.317L2.096,8.064C1.669,8.812 1.304,9.593 1.004,10.4L19.044,16.667C19.085,16.545 19.133,16.426 19.19,16.311" style="fill:rgb(0,167,181);fill-rule:nonzero;"/>
        <path d="M18.841,17.778C18.841,17.712 18.857,17.649 18.861,17.585L0.008,16.499C0.031,17.352 0.122,18.201 0.28,19.039L18.857,17.971C18.857,17.905 18.836,17.844 18.836,17.778" style="fill:rgb(0,167,181);fill-rule:nonzero;"/>
        <path d="M19.043,18.88L2.52,24.63C2.963,25.313 3.456,25.963 3.996,26.573L19.191,19.239C19.134,19.122 19.085,19.003 19.043,18.88Z" style="fill:rgb(0,167,181);fill-rule:nonzero;"/>
        <path d="M19.709,20.01L8.391,30.081C9.05,30.431 9.733,30.734 10.435,30.989L19.984,20.284C19.888,20.199 19.797,20.108 19.711,20.012" style="fill:rgb(0,167,181);fill-rule:nonzero;"/>
        <path d="M20.753,20.799L15.348,31.966C15.575,31.966 15.779,32 15.997,32C16.429,32 16.853,31.968 17.278,31.934L21.111,20.946C20.989,20.904 20.869,20.855 20.753,20.799Z" style="fill:rgb(0,167,181);fill-rule:nonzero;"/>
        <path d="M22.216,21.146C22.15,21.146 22.089,21.13 22.023,21.126L21.453,31.027C21.961,30.845 22.459,30.636 22.945,30.401L22.412,21.126C22.346,21.126 22.284,21.146 22.216,21.146Z" style="fill:white;fill-rule:nonzero;"/>
        <path d="M24.453,20.282L28.977,25.355C29.204,25.035 29.431,24.709 29.631,24.376L24.726,20.01C24.64,20.106 24.549,20.196 24.453,20.282Z" style="fill:white;fill-rule:nonzero;"/>
        <path d="M25.57,17.585C25.57,17.649 25.591,17.712 25.591,17.778C25.591,17.844 25.575,17.905 25.57,17.971L31.831,18.331C31.886,17.964 31.931,17.592 31.959,17.218L25.57,17.585Z" style="fill:white;fill-rule:nonzero;"/>
        <path d="M24.726,15.544L30.873,10.076C30.691,9.623 30.489,9.183 30.269,8.752L24.453,15.272C24.549,15.358 24.639,15.449 24.726,15.544Z" style="fill:white;fill-rule:nonzero;"/>
        <path d="M22.021,14.428C22.087,14.428 22.148,14.41 22.214,14.41C22.28,14.41 22.344,14.424 22.407,14.428L23.143,1.699C22.527,1.391 21.892,1.124 21.242,0.898L22.021,14.428Z" style="fill:white;fill-rule:nonzero;"/>
        <path d="M23.32,20.946L25.961,28.517C26.316,28.235 26.654,27.936 26.981,27.625L23.679,20.799C23.562,20.855 23.443,20.904 23.32,20.946Z" style="fill:white;fill-rule:nonzero;"/>
        <path d="M25.242,19.239L30.863,21.96C30.999,21.62 31.129,21.28 31.24,20.926L25.388,18.885C25.347,19.007 25.299,19.127 25.242,19.243" style="fill:white;fill-rule:nonzero;"/>
        <path d="M25.388,16.667L31.939,14.399C31.896,13.984 31.828,13.58 31.755,13.176L25.242,16.32C25.299,16.435 25.347,16.554 25.388,16.676" style="fill:white;fill-rule:nonzero;"/>
        <path d="M28.126,5.566C27.744,5.125 27.339,4.706 26.913,4.309L23.32,14.61C23.443,14.653 23.561,14.701 23.679,14.755L28.126,5.566Z" style="fill:white;fill-rule:nonzero;"/>
    </g>
</svg>
