<?xml version="1.0" encoding="UTF-8" standalone="no"?>
<svg
   viewBox="0 0 58.999999 59.2"
   version="1.1"
   id="svg6"
   sodipodi:docname="starrocks-no-text.svg"
   width="59"
   height="59.200001"
   inkscape:version="1.3.2 (091e20e, 2023-11-25)"
   xmlns:inkscape="http://www.inkscape.org/namespaces/inkscape"
   xmlns:sodipodi="http://sodipodi.sourceforge.net/DTD/sodipodi-0.dtd"
   xmlns="http://www.w3.org/2000/svg"
   xmlns:svg="http://www.w3.org/2000/svg">
  <sodipodi:namedview
     id="namedview6"
     pagecolor="#ffffff"
     bordercolor="#000000"
     borderopacity="0.25"
     inkscape:showpageshadow="2"
     inkscape:pageopacity="0.0"
     inkscape:pagecheckerboard="0"
     inkscape:deskcolor="#d1d1d1"
     inkscape:zoom="1.8867924"
     inkscape:cx="144.425"
     inkscape:cy="29.680001"
     inkscape:window-width="1048"
     inkscape:window-height="581"
     inkscape:window-x="2800"
     inkscape:window-y="36"
     inkscape:window-maximized="0"
     inkscape:current-layer="svg6" />
  <defs
     id="defs1">
    <style
       id="style1">.cls-1{fill:#edb716;}.cls-2{fill:#327d8c;}.cls-3{fill:#444;fill-rule:evenodd;}</style>
  </defs>
  <g
     id="图层_2"
     data-name="图层 2">
    <g
       id="图层_1-2"
       data-name="图层 1">
      <path
         class="cls-1"
         d="M 15.84,25.79 C 11.94,22.59 7.65,19.05 5.37,17.16 L 3.77,15.85 C 2.67,14.93 1.77,13.32 3.67,12.21 4.49,11.73 18.4,3.75 23.53,0.78 a 5.82,5.82 0 0 1 5.82,0 l 9.83,5.67 a 1.16,1.16 0 0 1 0,2 l -23,13.19 a 2.53,2.53 0 0 0 -0.34,4.15 z"
         id="path1" />
      <path
         class="cls-2"
         d="m 21.59,35.14 -9.37,14.27 a 2.31,2.31 0 0 1 -3.1,0.74 L 2.91,46.57 A 5.82,5.82 0 0 1 0,41.57 V 17.71 a 5.8,5.8 0 0 1 2.34,-4.66 c -1.67,1.28 -1,2.72 0.1,3.64 l 18.68,15.39 a 2.31,2.31 0 0 1 0.47,3.06 z"
         id="path2" />
      <path
         class="cls-2"
         d="M 37.05,33.41 C 41,36.62 45.24,40.15 47.52,42 l 1.6,1.31 c 1.1,0.92 2,2.53 0.1,3.64 -0.82,0.49 -14.73,8.46 -19.86,11.43 a 5.84,5.84 0 0 1 -5.83,0 l -9.82,-5.67 a 1.16,1.16 0 0 1 0,-2 l 23,-13.19 a 2.53,2.53 0 0 0 0.34,-4.11 z"
         id="path3" />
      <path
         class="cls-2"
         d="M 31.3,24.06 40.67,9.79 a 2.32,2.32 0 0 1 3.1,-0.74 L 50,12.63 a 5.85,5.85 0 0 1 2.92,5 v 23.86 a 5.82,5.82 0 0 1 -2.34,4.67 c 1.67,-1.29 1,-2.73 -0.1,-3.64 L 31.76,27.12 A 2.32,2.32 0 0 1 31.3,24.06 Z"
         id="path4" />
    </g>
  </g>
</svg>
