<?xml version="1.0" encoding="UTF-8" standalone="no"?>
<!-- Generator: Adobe Illustrator 28.2.0, SVG Export Plug-In . SVG Version: 6.00 Build 0)  -->

<svg
   version="1.1"
   id="Layer_1"
   x="0px"
   y="0px"
   viewBox="0 0 1106 1106"
   style="enable-background:new 0 0 1106 1106;"
   xml:space="preserve"
   sodipodi:docname="LAKEKEEPER_IMAGE.svg"
   inkscape:version="1.4 (e7c3feb1, 2024-10-09)"
   xmlns:inkscape="http://www.inkscape.org/namespaces/inkscape"
   xmlns:sodipodi="http://sodipodi.sourceforge.net/DTD/sodipodi-0.dtd"
   xmlns="http://www.w3.org/2000/svg"
   xmlns:svg="http://www.w3.org/2000/svg"><defs
   id="defs31"><rect
     x="-63.071287"
     y="380.5301"
     width="960.78594"
     height="237.56851"
     id="rect2" /><rect
     x="343.47931"
     y="420.6244"
     width="290.21247"
     height="203.88344"
     id="rect1" /><rect
     x="117.359"
     y="229.78234"
     width="8.5003013"
     height="59.776312"
     id="rect33" /></defs><sodipodi:namedview
   id="namedview31"
   pagecolor="#505050"
   bordercolor="#eeeeee"
   borderopacity="1"
   inkscape:showpageshadow="0"
   inkscape:pageopacity="0"
   inkscape:pagecheckerboard="0"
   inkscape:deskcolor="#505050"
   inkscape:zoom="0.57203579"
   inkscape:cx="606.6054"
   inkscape:cy="568.14627"
   inkscape:window-width="1712"
   inkscape:window-height="1371"
   inkscape:window-x="1448"
   inkscape:window-y="25"
   inkscape:window-maximized="0"
   inkscape:current-layer="Layer_1" />
<style
   type="text/css"
   id="style1">
	.st0{fill-rule:evenodd;clip-rule:evenodd;fill:#FFFFFF;}
	.st1{fill:#091F34;}
	.st2{fill-rule:evenodd;clip-rule:evenodd;fill:#5D7389;}
	.st3{fill-rule:evenodd;clip-rule:evenodd;fill:#32485C;}
	.st4{fill-rule:evenodd;clip-rule:evenodd;fill:#091F34;}
	.st5{fill-rule:evenodd;clip-rule:evenodd;fill:#1E3448;}
	.st6{fill-rule:evenodd;clip-rule:evenodd;fill:#8DA5BA;}
	.st7{fill-rule:evenodd;clip-rule:evenodd;fill:#BCD4EB;}
</style>
































<polygon
   class="st2"
   points="540.71,562.75 533.4,585.15 566.97,585.15 557.62,559.25 "
   id="polygon2"
   transform="matrix(6.0276841,0,0,6.0276841,-2774.2954,-2553.0162)" /><polygon
   class="st3"
   points="557.62,559.25 540.37,550.78 519.97,548.46 533.4,585.15 "
   id="polygon3"
   transform="matrix(6.0276841,0,0,6.0276841,-2774.2954,-2553.0162)" /><polygon
   class="st4"
   points="557.62,559.25 562.41,535.03 541.16,536.49 519.97,548.46 "
   id="polygon4"
   transform="matrix(6.0276841,0,0,6.0276841,-2774.2954,-2553.0162)" /><polygon
   class="st2"
   points="583.97,560.9 578.96,585.15 613.73,585.15 600.2,549.33 "
   id="polygon5"
   transform="matrix(6.0276841,0,0,6.0276841,-2774.2954,-2553.0162)" /><polygon
   class="st3"
   points="600.2,549.33 581.31,547.14 570.69,560.09 578.96,585.15 "
   id="polygon6"
   transform="matrix(6.0276841,0,0,6.0276841,-2774.2954,-2553.0162)" /><polygon
   class="st4"
   points="600.2,549.33 583.02,534.19 562.41,535.03 570.69,560.09 "
   id="polygon7"
   transform="matrix(6.0276841,0,0,6.0276841,-2774.2954,-2553.0162)" /><polygon
   class="st3"
   points="600.2,549.33 600.81,501.96 576.67,514.31 562.41,535.03 "
   id="polygon8"
   transform="matrix(6.0276841,0,0,6.0276841,-2774.2954,-2553.0162)" /><polygon
   class="st2"
   points="562.41,535.03 600.81,501.96 576.21,493.2 565.26,496.73 557.6,506.18 "
   id="polygon9"
   transform="matrix(6.0276841,0,0,6.0276841,-2774.2954,-2553.0162)" /><polygon
   class="st3"
   points="562.41,535.03 565.26,496.73 553.87,482.52 529.8,482.52 534.73,509.69 "
   id="polygon10"
   transform="matrix(6.0276841,0,0,6.0276841,-2774.2954,-2553.0162)" /><polygon
   class="st5"
   points="544.44,506.09 525.44,525.36 519.97,548.46 562.41,535.03 "
   id="polygon11"
   transform="matrix(6.0276841,0,0,6.0276841,-2774.2954,-2553.0162)" /><polygon
   class="st2"
   points="519.97,548.46 544.44,506.09 532.95,496.11 499.6,485.24 504.72,527.11 "
   id="polygon12"
   transform="matrix(6.0276841,0,0,6.0276841,-2774.2954,-2553.0162)" /><polygon
   class="st5"
   points="519.97,548.46 499.6,485.24 485.78,518.39 477.53,541.03 489.79,550.59 "
   id="polygon13"
   transform="matrix(6.0276841,0,0,6.0276841,-2774.2954,-2553.0162)" /><polygon
   class="st4"
   points="477.53,541.03 471.53,563.09 494.75,561.09 519.97,548.46 "
   id="polygon14"
   transform="matrix(6.0276841,0,0,6.0276841,-2774.2954,-2553.0162)" /><polygon
   class="st3"
   points="471.53,563.09 477.17,576.74 499.35,585.15 519.97,548.46 "
   id="polygon15"
   transform="matrix(6.0276841,0,0,6.0276841,-2774.2954,-2553.0162)" /><polygon
   class="st2"
   points="471.53,563.09 465.54,585.15 499.35,585.15 "
   id="polygon16"
   transform="matrix(6.0276841,0,0,6.0276841,-2774.2954,-2553.0162)" /><path
   d="M 237.13467,371.86073 110.61217,482.70184 104.1018,708.13958 Z"
   style="clip-rule:evenodd;fill:#bcd4eb;fill-opacity:1;fill-rule:evenodd;stroke:none;stroke-width:6.02769;stroke-opacity:1"
   id="path1" /><polygon
   class="st6"
   points="544.44,506.09 529.8,482.52 499.6,485.24 "
   id="polygon18"
   transform="matrix(6.0276841,0,0,6.0276841,-2774.2954,-2553.0162)" /><polygon
   class="st2"
   points="578.48,485.76 600.81,501.96 609.16,487.46 602.26,477.09 593.6,471.42 567.57,465.73 "
   id="polygon19"
   transform="matrix(6.0276841,0,0,6.0276841,-2774.2954,-2553.0162)" /><polygon
   class="st5"
   points="600.81,501.96 635.19,484.44 615.65,475.2 602.26,477.09 "
   id="polygon20"
   transform="matrix(6.0276841,0,0,6.0276841,-2774.2954,-2553.0162)" /><polygon
   class="st6"
   points="602.26,477.09 635.19,484.44 631.42,472.32 623.68,465.25 612.97,466.37 "
   id="polygon21"
   transform="matrix(6.0276841,0,0,6.0276841,-2774.2954,-2553.0162)" /><polygon
   class="st7"
   points="635.19,484.44 640.46,469.57 623.68,465.25 "
   id="polygon22"
   transform="matrix(6.0276841,0,0,6.0276841,-2774.2954,-2553.0162)"
   style="fill:#bcd4eb;fill-opacity:1" /><polygon
   class="st3"
   points="623.68,465.25 613.61,455.66 601.17,465.05 602.26,477.09 "
   id="polygon23"
   transform="matrix(6.0276841,0,0,6.0276841,-2774.2954,-2553.0162)" /><polygon
   class="st7"
   points="613.61,455.66 585.75,459.26 567.57,465.73 602.26,477.09 "
   id="polygon24"
   transform="matrix(6.0276841,0,0,6.0276841,-2774.2954,-2553.0162)" /><polygon
   class="st6"
   points="594.85,458.08 602.13,453.36 595.43,448.15 589.3,447.1 587.01,451.39 585.78,459.33 "
   id="polygon25"
   transform="matrix(6.0276841,0,0,6.0276841,-2774.2954,-2553.0162)" /><polygon
   class="st2"
   points="565.26,496.73 574.02,484.61 567.57,465.73 529.8,482.52 "
   id="polygon26"
   transform="matrix(6.0276841,0,0,6.0276841,-2774.2954,-2553.0162)" /><polygon
   class="st6"
   points="600.81,501.96 567.57,465.73 565.26,496.73 "
   id="polygon27"
   transform="matrix(6.0276841,0,0,6.0276841,-2774.2954,-2553.0162)" /><polygon
   class="st2"
   points="524.7,568.36 519.41,573.95 515.65,585.15 530.84,585.15 "
   id="polygon28"
   transform="matrix(6.0276841,0,0,6.0276841,-2774.2954,-2553.0162)" /><polygon
   class="st3"
   points="524.7,568.36 519.31,564.46 512.21,567.57 515.65,585.15 "
   id="polygon29"
   transform="matrix(6.0276841,0,0,6.0276841,-2774.2954,-2553.0162)" /><polygon
   class="st4"
   points="524.7,568.36 519.51,554.18 512.15,567.27 512.21,567.57 "
   id="polygon30"
   transform="matrix(6.0276841,0,0,6.0276841,-2774.2954,-2553.0162)" /><polygon
   class="st2"
   points="585.75,459.26 602.11,453.29 613.61,455.66 602.26,477.08 "
   id="polygon31"
   transform="matrix(6.0276841,0,0,6.0276841,-2774.2954,-2553.0162)" />
<text
   xml:space="preserve"
   id="text1"
   style="font-style:normal;font-variant:normal;font-weight:bold;font-stretch:normal;font-size:106.667px;font-family:Orbitron;-inkscape-font-specification:'Orbitron Bold';text-align:start;writing-mode:lr-tb;direction:ltr;white-space:pre;shape-inside:url(#rect1);display:inline;fill:#fefefe;stroke-width:1.212" /><text
   xml:space="preserve"
   id="text2"
   style="font-weight:bold;font-size:106.667px;font-family:Orbitron;-inkscape-font-specification:'Orbitron Bold';text-align:start;writing-mode:lr-tb;direction:ltr;white-space:pre;shape-inside:url(#rect2);display:inline;fill:#000000;fill-opacity:1;stroke-width:1.212" /></svg>
