<?xml version="1.0" encoding="UTF-8" standalone="no"?>
<!-- Generator: Adobe Illustrator 28.2.0, SVG Export Plug-In . SVG Version: 6.00 Build 0)  -->

<svg
   version="1.1"
   id="Layer_1"
   x="0px"
   y="0px"
   viewBox="0 0 1106 1106"
   style="enable-background:new 0 0 1106 1106;"
   xml:space="preserve"
   sodipodi:docname="LAKEKEEPER_IMAGE_TEXT_WHITE.svg"
   inkscape:version="1.4 (e7c3feb1, 2024-10-09)"
   xmlns:inkscape="http://www.inkscape.org/namespaces/inkscape"
   xmlns:sodipodi="http://sodipodi.sourceforge.net/DTD/sodipodi-0.dtd"
   xmlns="http://www.w3.org/2000/svg"
   xmlns:svg="http://www.w3.org/2000/svg"><defs
   id="defs31"><rect
     x="-63.071287"
     y="380.5301"
     width="960.78594"
     height="237.56851"
     id="rect2" /><rect
     x="343.47931"
     y="420.6244"
     width="290.21247"
     height="203.88344"
     id="rect1" /><rect
     x="117.359"
     y="229.78234"
     width="8.5003013"
     height="59.776312"
     id="rect33" /></defs><sodipodi:namedview
   id="namedview31"
   pagecolor="#505050"
   bordercolor="#eeeeee"
   borderopacity="1"
   inkscape:showpageshadow="0"
   inkscape:pageopacity="0"
   inkscape:pagecheckerboard="0"
   inkscape:deskcolor="#505050"
   inkscape:zoom="0.57203579"
   inkscape:cx="606.6054"
   inkscape:cy="568.14627"
   inkscape:window-width="1440"
   inkscape:window-height="847"
   inkscape:window-x="0"
   inkscape:window-y="25"
   inkscape:window-maximized="0"
   inkscape:current-layer="Layer_1" />
<style
   type="text/css"
   id="style1">
	.st0{fill-rule:evenodd;clip-rule:evenodd;fill:#FFFFFF;}
	.st1{fill:#091F34;}
	.st2{fill-rule:evenodd;clip-rule:evenodd;fill:#5D7389;}
	.st3{fill-rule:evenodd;clip-rule:evenodd;fill:#32485C;}
	.st4{fill-rule:evenodd;clip-rule:evenodd;fill:#091F34;}
	.st5{fill-rule:evenodd;clip-rule:evenodd;fill:#1E3448;}
	.st6{fill-rule:evenodd;clip-rule:evenodd;fill:#8DA5BA;}
	.st7{fill-rule:evenodd;clip-rule:evenodd;fill:#BCD4EB;}
</style>
































<polygon
   class="st2"
   points="557.62,559.25 540.71,562.75 533.4,585.15 566.97,585.15 "
   id="polygon2"
   transform="matrix(6.0276841,0,0,6.0276841,-2772.5473,-2666.6455)" /><polygon
   class="st3"
   points="533.4,585.15 557.62,559.25 540.37,550.78 519.97,548.46 "
   id="polygon3"
   transform="matrix(6.0276841,0,0,6.0276841,-2772.5473,-2666.6455)" /><polygon
   class="st4"
   points="519.97,548.46 557.62,559.25 562.41,535.03 541.16,536.49 "
   id="polygon4"
   transform="matrix(6.0276841,0,0,6.0276841,-2772.5473,-2666.6455)" /><polygon
   class="st2"
   points="600.2,549.33 583.97,560.9 578.96,585.15 613.73,585.15 "
   id="polygon5"
   transform="matrix(6.0276841,0,0,6.0276841,-2772.5473,-2666.6455)" /><polygon
   class="st3"
   points="578.96,585.15 600.2,549.33 581.31,547.14 570.69,560.09 "
   id="polygon6"
   transform="matrix(6.0276841,0,0,6.0276841,-2772.5473,-2666.6455)" /><polygon
   class="st4"
   points="570.69,560.09 600.2,549.33 583.02,534.19 562.41,535.03 "
   id="polygon7"
   transform="matrix(6.0276841,0,0,6.0276841,-2772.5473,-2666.6455)" /><polygon
   class="st3"
   points="562.41,535.03 600.2,549.33 600.81,501.96 576.67,514.31 "
   id="polygon8"
   transform="matrix(6.0276841,0,0,6.0276841,-2772.5473,-2666.6455)" /><polygon
   class="st2"
   points="557.6,506.18 562.41,535.03 600.81,501.96 576.21,493.2 565.26,496.73 "
   id="polygon9"
   transform="matrix(6.0276841,0,0,6.0276841,-2772.5473,-2666.6455)" /><polygon
   class="st3"
   points="534.73,509.69 562.41,535.03 565.26,496.73 553.87,482.52 529.8,482.52 "
   id="polygon10"
   transform="matrix(6.0276841,0,0,6.0276841,-2772.5473,-2666.6455)" /><polygon
   class="st5"
   points="562.41,535.03 544.44,506.09 525.44,525.36 519.97,548.46 "
   id="polygon11"
   transform="matrix(6.0276841,0,0,6.0276841,-2772.5473,-2666.6455)" /><polygon
   class="st2"
   points="504.72,527.11 519.97,548.46 544.44,506.09 532.95,496.11 499.6,485.24 "
   id="polygon12"
   transform="matrix(6.0276841,0,0,6.0276841,-2772.5473,-2666.6455)" /><polygon
   class="st5"
   points="489.79,550.59 519.97,548.46 499.6,485.24 485.78,518.39 477.53,541.03 "
   id="polygon13"
   transform="matrix(6.0276841,0,0,6.0276841,-2772.5473,-2666.6455)" /><polygon
   class="st4"
   points="519.97,548.46 477.53,541.03 471.53,563.09 494.75,561.09 "
   id="polygon14"
   transform="matrix(6.0276841,0,0,6.0276841,-2772.5473,-2666.6455)" /><polygon
   class="st3"
   points="519.97,548.46 471.53,563.09 477.17,576.74 499.35,585.15 "
   id="polygon15"
   transform="matrix(6.0276841,0,0,6.0276841,-2772.5473,-2666.6455)" /><polygon
   class="st2"
   points="499.35,585.15 471.53,563.09 465.54,585.15 "
   id="polygon16"
   transform="matrix(6.0276841,0,0,6.0276841,-2772.5473,-2666.6455)" /><path
   d="m 238.88281,258.23148 -126.5225,110.84111 -6.51037,225.43774 z"
   style="clip-rule:evenodd;fill:#bcd4eb;fill-opacity:1;fill-rule:evenodd;stroke:none;stroke-width:6.02769;stroke-opacity:1"
   id="path1" /><polygon
   class="st6"
   points="499.6,485.24 544.44,506.09 529.8,482.52 "
   id="polygon18"
   transform="matrix(6.0276841,0,0,6.0276841,-2772.5473,-2666.6455)" /><polygon
   class="st2"
   points="567.57,465.73 578.48,485.76 600.81,501.96 609.16,487.46 602.26,477.09 593.6,471.42 "
   id="polygon19"
   transform="matrix(6.0276841,0,0,6.0276841,-2772.5473,-2666.6455)" /><polygon
   class="st5"
   points="602.26,477.09 600.81,501.96 635.19,484.44 615.65,475.2 "
   id="polygon20"
   transform="matrix(6.0276841,0,0,6.0276841,-2772.5473,-2666.6455)" /><polygon
   class="st6"
   points="612.97,466.37 602.26,477.09 635.19,484.44 631.42,472.32 623.68,465.25 "
   id="polygon21"
   transform="matrix(6.0276841,0,0,6.0276841,-2772.5473,-2666.6455)" /><polygon
   class="st7"
   points="623.68,465.25 635.19,484.44 640.46,469.57 "
   id="polygon22"
   transform="matrix(6.0276841,0,0,6.0276841,-2772.5473,-2666.6455)"
   style="fill:#bcd4eb;fill-opacity:1" /><polygon
   class="st3"
   points="602.26,477.09 623.68,465.25 613.61,455.66 601.17,465.05 "
   id="polygon23"
   transform="matrix(6.0276841,0,0,6.0276841,-2772.5473,-2666.6455)" /><polygon
   class="st7"
   points="602.26,477.09 613.61,455.66 585.75,459.26 567.57,465.73 "
   id="polygon24"
   transform="matrix(6.0276841,0,0,6.0276841,-2772.5473,-2666.6455)" /><polygon
   class="st6"
   points="585.78,459.33 594.85,458.08 602.13,453.36 595.43,448.15 589.3,447.1 587.01,451.39 "
   id="polygon25"
   transform="matrix(6.0276841,0,0,6.0276841,-2772.5473,-2666.6455)" /><polygon
   class="st2"
   points="529.8,482.52 565.26,496.73 574.02,484.61 567.57,465.73 "
   id="polygon26"
   transform="matrix(6.0276841,0,0,6.0276841,-2772.5473,-2666.6455)" /><polygon
   class="st6"
   points="565.26,496.73 600.81,501.96 567.57,465.73 "
   id="polygon27"
   transform="matrix(6.0276841,0,0,6.0276841,-2772.5473,-2666.6455)" /><polygon
   class="st2"
   points="530.84,585.15 524.7,568.36 519.41,573.95 515.65,585.15 "
   id="polygon28"
   transform="matrix(6.0276841,0,0,6.0276841,-2772.5473,-2666.6455)" /><polygon
   class="st3"
   points="515.65,585.15 524.7,568.36 519.31,564.46 512.21,567.57 "
   id="polygon29"
   transform="matrix(6.0276841,0,0,6.0276841,-2772.5473,-2666.6455)" /><polygon
   class="st4"
   points="512.21,567.57 524.7,568.36 519.51,554.18 512.15,567.27 "
   id="polygon30"
   transform="matrix(6.0276841,0,0,6.0276841,-2772.5473,-2666.6455)" /><polygon
   class="st2"
   points="602.26,477.08 585.75,459.26 602.11,453.29 613.61,455.66 "
   id="polygon31"
   transform="matrix(6.0276841,0,0,6.0276841,-2772.5473,-2666.6455)" />
<path
   style="font-weight:bold;font-size:157.225px;line-height:1.25;font-family:Orbitron;-inkscape-font-specification:'Orbitron Bold';fill:#bcd4eb;stroke-width:1.58797"
   d="M 30.763057,1041.1028 V 927.74355 h 20.753701 v 92.44835 h 92.448302 v 20.9109 z m 143.389093,0 q -5.97455,0 -11.00575,-2.9873 -4.87397,-2.9873 -7.86125,-7.8612 -2.83005,-4.874 -2.83005,-10.8486 v -34.27502 h 72.00906 v -12.73522 q 0,-0.78613 -0.6289,-1.2578 -0.47168,-0.6289 -1.2578,-0.6289 H 152.4551 v -20.59648 h 70.90848 q 5.97455,0 10.84853,2.98727 5.0312,2.98728 7.86125,7.86126 2.98727,4.87397 2.98727,10.84852 v 69.49347 z m 0.78613,-20.5965 h 49.52588 v -16.8231 h -51.41258 v 14.9364 q 0,0.7861 0.47167,1.415 0.6289,0.4717 1.41503,0.4717 z m 85.86198,20.5965 v 0 -121.06327 h 20.59648 v 65.09115 h 16.19417 l 32.54558,-35.2184 h 22.0115 v 5.6601 l -36.31898,39.93515 36.16176,39.93517 v 5.6601 h -21.85428 l -32.54558,-35.2184 h -16.19417 v 35.2184 z m 122.54862,0 q -5.97455,0 -10.84853,-2.9873 -4.87397,-2.9873 -7.86125,-7.8612 -2.98727,-4.874 -2.98727,-10.8486 v -47.79637 q 0,-5.97455 2.98727,-10.84852 2.98728,-4.87398 7.86125,-7.86126 4.87398,-2.98727 10.84853,-2.98727 h 49.21143 q 5.97455,0 10.84852,2.98727 5.0312,2.98728 7.86125,7.86126 2.98728,4.87397 2.98728,10.84852 v 34.27507 h -72.00905 v 12.7352 q 0,0.7861 0.47167,1.415 0.6289,0.4717 1.41503,0.4717 h 70.12235 v 20.5965 h -70.90848 z m -1.10057,-53.77097 h 51.41257 v -14.93637 q 0,-0.78613 -0.6289,-1.2578 -0.47167,-0.6289 -1.2578,-0.6289 h -47.63917 q -0.78613,0 -1.41503,0.6289 -0.47167,0.47167 -0.47167,1.2578 z m 88.67482,53.77097 v 0 -121.06327 h 20.59647 v 65.09115 h 16.19418 l 32.54557,-35.2184 h 22.0115 v 5.6601 l -36.31897,39.93515 36.16175,39.93517 v 5.6601 h -21.85428 l -32.54557,-35.2184 H 491.5196 v 35.2184 z m 122.54858,0 q -5.97455,0 -10.84852,-2.9873 -4.87398,-2.9873 -7.86125,-7.8612 -2.98728,-4.874 -2.98728,-10.8486 v -47.79637 q 0,-5.97455 2.98728,-10.84852 2.98727,-4.87398 7.86125,-7.86126 4.87397,-2.98727 10.84852,-2.98727 h 49.21143 q 5.97455,0 10.84853,2.98727 5.0312,2.98728 7.86125,7.86126 2.98727,4.87397 2.98727,10.84852 v 34.27507 h -72.00905 v 12.7352 q 0,0.7861 0.47167,1.415 0.6289,0.4717 1.41503,0.4717 h 70.12235 v 20.5965 h -70.90848 z m -1.10057,-53.77097 h 51.41258 v -14.93637 q 0,-0.78613 -0.6289,-1.2578 -0.47168,-0.6289 -1.2578,-0.6289 h -47.63918 q -0.78613,0 -1.41503,0.6289 -0.47167,0.47167 -0.47167,1.2578 z m 106.45842,53.77097 q -5.97455,0 -10.84852,-2.9873 -4.87398,-2.9873 -7.86125,-7.8612 -2.98728,-4.874 -2.98728,-10.8486 v -47.79637 q 0,-5.97455 2.98728,-10.84852 2.98727,-4.87398 7.86125,-7.86126 4.87397,-2.98727 10.84852,-2.98727 h 49.21143 q 5.97455,0 10.84853,2.98727 5.0312,2.98728 7.86125,7.86126 2.98727,4.87397 2.98727,10.84852 v 34.27507 h -72.00905 v 12.7352 q 0,0.7861 0.47167,1.415 0.6289,0.4717 1.41503,0.4717 h 70.12235 v 20.5965 h -70.90848 z m -1.10057,-53.77097 h 51.41257 v -14.93637 q 0,-0.78613 -0.6289,-1.2578 -0.47167,-0.6289 -1.2578,-0.6289 h -47.63917 q -0.78613,0 -1.41503,0.6289 -0.47167,0.47167 -0.47167,1.2578 z m 88.67482,89.93267 v 0 -127.35222 h 70.90848 q 5.97455,0 10.84852,2.98727 5.0312,2.98728 7.86125,7.86126 2.98728,4.87397 2.98728,10.84852 v 47.79637 q 0,5.9746 -2.98728,10.8486 -2.83005,4.8739 -7.86125,7.8612 -4.87397,2.9873 -10.84852,2.9873 h -50.31201 v 36.1617 z m 22.48317,-56.7582 h 47.63918 q 0.78613,0 1.2578,-0.4717 0.6289,-0.6289 0.6289,-1.415 v -46.22414 q 0,-0.78613 -0.6289,-1.2578 -0.47167,-0.6289 -1.2578,-0.6289 h -47.63918 q -0.78612,0 -1.41502,0.6289 -0.47168,0.47167 -0.47168,1.2578 v 46.22414 q 0,0.7861 0.47168,1.415 0.6289,0.4717 1.41502,0.4717 z m 103.13954,20.5965 q -5.97455,0 -10.84852,-2.9873 -4.87398,-2.9873 -7.86125,-7.8612 -2.98728,-4.874 -2.98728,-10.8486 v -47.79637 q 0,-5.97455 2.98728,-10.84852 2.98727,-4.87398 7.86125,-7.86126 4.87397,-2.98727 10.84852,-2.98727 h 49.21143 q 5.97455,0 10.84853,2.98727 5.0312,2.98728 7.86125,7.86126 2.98727,4.87397 2.98727,10.84852 v 34.27507 h -72.00905 v 12.7352 q 0,0.7861 0.47167,1.415 0.6289,0.4717 1.41503,0.4717 H 982.935 v 20.5965 h -70.90848 z m -1.10057,-53.77097 h 51.41258 v -14.93637 q 0,-0.78613 -0.6289,-1.2578 -0.47168,-0.6289 -1.2578,-0.6289 h -47.63918 q -0.78613,0 -1.41503,0.6289 -0.47167,0.47167 -0.47167,1.2578 z m 87.35756,53.77097 v 0 -69.49347 q 0,-5.97455 2.98729,-10.84852 2.9873,-4.87398 7.8612,-7.86126 5.0312,-2.98727 10.8486,-2.98727 h 50.6264 v 20.59648 h -49.8403 q -0.7861,0 -1.415,0.6289 -0.4717,0.47167 -0.4717,1.2578 v 68.70734 z"
   id="text32"
   aria-label="Lakekeeper" /><text
   xml:space="preserve"
   id="text1"
   style="font-style:normal;font-variant:normal;font-weight:bold;font-stretch:normal;font-size:106.667px;font-family:Orbitron;-inkscape-font-specification:'Orbitron Bold';text-align:start;writing-mode:lr-tb;direction:ltr;white-space:pre;shape-inside:url(#rect1);display:inline;fill:#fefefe;stroke-width:1.212" /><text
   xml:space="preserve"
   id="text2"
   style="font-weight:bold;font-size:106.667px;font-family:Orbitron;-inkscape-font-specification:'Orbitron Bold';text-align:start;writing-mode:lr-tb;direction:ltr;white-space:pre;shape-inside:url(#rect2);display:inline;fill:#000000;fill-opacity:1;stroke-width:1.212" /></svg>
