<?xml version="1.0" encoding="UTF-8" standalone="no"?>
<!-- Generator: Adobe Illustrator 28.2.0, SVG Export Plug-In . SVG Version: 6.00 Build 0)  -->

<svg
   version="1.1"
   id="Layer_1"
   x="0px"
   y="0px"
   viewBox="0 0 860.46594 146.86818"
   xml:space="preserve"
   sodipodi:docname="LAKEKEEPER_IMAGE_TEXT_WHITE_SIDE.svg"
   inkscape:version="1.4 (e7c3feb1, 2024-10-09)"
   width="860.46594"
   height="146.86818"
   xmlns:inkscape="http://www.inkscape.org/namespaces/inkscape"
   xmlns:sodipodi="http://sodipodi.sourceforge.net/DTD/sodipodi-0.dtd"
   xmlns="http://www.w3.org/2000/svg"
   xmlns:svg="http://www.w3.org/2000/svg"><defs
   id="defs31"><rect
     x="-63.071285"
     y="380.53009"
     width="960.78595"
     height="237.56851"
     id="rect2" /><rect
     x="343.47931"
     y="420.62439"
     width="290.21246"
     height="203.88344"
     id="rect1" /><rect
     x="117.359"
     y="229.78233"
     width="8.5003014"
     height="59.776314"
     id="rect33" /></defs><sodipodi:namedview
   id="namedview31"
   pagecolor="#505050"
   bordercolor="#eeeeee"
   borderopacity="1"
   inkscape:showpageshadow="0"
   inkscape:pageopacity="0"
   inkscape:pagecheckerboard="0"
   inkscape:deskcolor="#505050"
   inkscape:zoom="0.89037239"
   inkscape:cx="678.36785"
   inkscape:cy="89.850046"
   inkscape:window-width="1440"
   inkscape:window-height="847"
   inkscape:window-x="0"
   inkscape:window-y="25"
   inkscape:window-maximized="0"
   inkscape:current-layer="Layer_1" />
<style
   type="text/css"
   id="style1">
	.st0{fill-rule:evenodd;clip-rule:evenodd;fill:#FFFFFF;}
	.st1{fill:#091F34;}
	.st2{fill-rule:evenodd;clip-rule:evenodd;fill:#5D7389;}
	.st3{fill-rule:evenodd;clip-rule:evenodd;fill:#32485C;}
	.st4{fill-rule:evenodd;clip-rule:evenodd;fill:#091F34;}
	.st5{fill-rule:evenodd;clip-rule:evenodd;fill:#1E3448;}
	.st6{fill-rule:evenodd;clip-rule:evenodd;fill:#8DA5BA;}
	.st7{fill-rule:evenodd;clip-rule:evenodd;fill:#BCD4EB;}
</style>
































<g
   id="g1"
   transform="matrix(0.46879315,0,0,0.46879315,-12.464367,-173.90725)"><polygon
     class="st2"
     points="557.62,559.25 540.71,562.75 533.4,585.15 566.97,585.15 "
     id="polygon2"
     transform="matrix(1.9001813,0,0,1.9001813,-858.0222,-478.60308)" /><polygon
     class="st3"
     points="533.4,585.15 557.62,559.25 540.37,550.78 519.97,548.46 "
     id="polygon3"
     transform="matrix(1.9001813,0,0,1.9001813,-858.0222,-478.60308)" /><polygon
     class="st4"
     points="519.97,548.46 557.62,559.25 562.41,535.03 541.16,536.49 "
     id="polygon4"
     transform="matrix(1.9001813,0,0,1.9001813,-858.0222,-478.60308)" /><polygon
     class="st2"
     points="600.2,549.33 583.97,560.9 578.96,585.15 613.73,585.15 "
     id="polygon5"
     transform="matrix(1.9001813,0,0,1.9001813,-858.0222,-478.60308)" /><polygon
     class="st3"
     points="578.96,585.15 600.2,549.33 581.31,547.14 570.69,560.09 "
     id="polygon6"
     transform="matrix(1.9001813,0,0,1.9001813,-858.0222,-478.60308)" /><polygon
     class="st4"
     points="570.69,560.09 600.2,549.33 583.02,534.19 562.41,535.03 "
     id="polygon7"
     transform="matrix(1.9001813,0,0,1.9001813,-858.0222,-478.60308)" /><polygon
     class="st3"
     points="562.41,535.03 600.2,549.33 600.81,501.96 576.67,514.31 "
     id="polygon8"
     transform="matrix(1.9001813,0,0,1.9001813,-858.0222,-478.60308)" /><polygon
     class="st2"
     points="576.21,493.2 565.26,496.73 557.6,506.18 562.41,535.03 600.81,501.96 "
     id="polygon9"
     transform="matrix(1.9001813,0,0,1.9001813,-858.0222,-478.60308)" /><polygon
     class="st3"
     points="553.87,482.52 529.8,482.52 534.73,509.69 562.41,535.03 565.26,496.73 "
     id="polygon10"
     transform="matrix(1.9001813,0,0,1.9001813,-858.0222,-478.60308)" /><polygon
     class="st5"
     points="562.41,535.03 544.44,506.09 525.44,525.36 519.97,548.46 "
     id="polygon11"
     transform="matrix(1.9001813,0,0,1.9001813,-858.0222,-478.60308)" /><polygon
     class="st2"
     points="532.95,496.11 499.6,485.24 504.72,527.11 519.97,548.46 544.44,506.09 "
     id="polygon12"
     transform="matrix(1.9001813,0,0,1.9001813,-858.0222,-478.60308)" /><polygon
     class="st5"
     points="485.78,518.39 477.53,541.03 489.79,550.59 519.97,548.46 499.6,485.24 "
     id="polygon13"
     transform="matrix(1.9001813,0,0,1.9001813,-858.0222,-478.60308)" /><polygon
     class="st4"
     points="519.97,548.46 477.53,541.03 471.53,563.09 494.75,561.09 "
     id="polygon14"
     transform="matrix(1.9001813,0,0,1.9001813,-858.0222,-478.60308)" /><polygon
     class="st3"
     points="519.97,548.46 471.53,563.09 477.17,576.74 499.35,585.15 "
     id="polygon15"
     transform="matrix(1.9001813,0,0,1.9001813,-858.0222,-478.60308)" /><polygon
     class="st2"
     points="465.54,585.15 499.35,585.15 471.53,563.09 "
     id="polygon16"
     transform="matrix(1.9001813,0,0,1.9001813,-858.0222,-478.60308)" /><path
     d="M 91.308087,443.44199 51.422838,478.3838 49.370494,549.45132 Z"
     style="clip-rule:evenodd;fill:#bcd4eb;fill-opacity:1;fill-rule:evenodd;stroke:none;stroke-width:1.90018;stroke-opacity:1"
     id="path1" /><polygon
     class="st6"
     points="529.8,482.52 499.6,485.24 544.44,506.09 "
     id="polygon18"
     transform="matrix(1.9001813,0,0,1.9001813,-858.0222,-478.60308)" /><polygon
     class="st2"
     points="600.81,501.96 609.16,487.46 602.26,477.09 593.6,471.42 567.57,465.73 578.48,485.76 "
     id="polygon19"
     transform="matrix(1.9001813,0,0,1.9001813,-858.0222,-478.60308)" /><polygon
     class="st5"
     points="602.26,477.09 600.81,501.96 635.19,484.44 615.65,475.2 "
     id="polygon20"
     transform="matrix(1.9001813,0,0,1.9001813,-858.0222,-478.60308)" /><polygon
     class="st6"
     points="631.42,472.32 623.68,465.25 612.97,466.37 602.26,477.09 635.19,484.44 "
     id="polygon21"
     transform="matrix(1.9001813,0,0,1.9001813,-858.0222,-478.60308)" /><polygon
     class="st7"
     points="640.46,469.57 623.68,465.25 635.19,484.44 "
     id="polygon22"
     transform="matrix(1.9001813,0,0,1.9001813,-858.0222,-478.60308)"
     style="fill:#bcd4eb;fill-opacity:1" /><polygon
     class="st3"
     points="602.26,477.09 623.68,465.25 613.61,455.66 601.17,465.05 "
     id="polygon23"
     transform="matrix(1.9001813,0,0,1.9001813,-858.0222,-478.60308)" /><polygon
     class="st7"
     points="602.26,477.09 613.61,455.66 585.75,459.26 567.57,465.73 "
     id="polygon24"
     transform="matrix(1.9001813,0,0,1.9001813,-858.0222,-478.60308)" /><polygon
     class="st6"
     points="602.13,453.36 595.43,448.15 589.3,447.1 587.01,451.39 585.78,459.33 594.85,458.08 "
     id="polygon25"
     transform="matrix(1.9001813,0,0,1.9001813,-858.0222,-478.60308)" /><polygon
     class="st2"
     points="529.8,482.52 565.26,496.73 574.02,484.61 567.57,465.73 "
     id="polygon26"
     transform="matrix(1.9001813,0,0,1.9001813,-858.0222,-478.60308)" /><polygon
     class="st6"
     points="567.57,465.73 565.26,496.73 600.81,501.96 "
     id="polygon27"
     transform="matrix(1.9001813,0,0,1.9001813,-858.0222,-478.60308)" /><polygon
     class="st2"
     points="530.84,585.15 524.7,568.36 519.41,573.95 515.65,585.15 "
     id="polygon28"
     transform="matrix(1.9001813,0,0,1.9001813,-858.0222,-478.60308)" /><polygon
     class="st3"
     points="515.65,585.15 524.7,568.36 519.31,564.46 512.21,567.57 "
     id="polygon29"
     transform="matrix(1.9001813,0,0,1.9001813,-858.0222,-478.60308)" /><polygon
     class="st4"
     points="512.21,567.57 524.7,568.36 519.51,554.18 512.15,567.27 "
     id="polygon30"
     transform="matrix(1.9001813,0,0,1.9001813,-858.0222,-478.60308)" /><polygon
     class="st2"
     points="602.26,477.08 585.75,459.26 602.11,453.29 613.61,455.66 "
     id="polygon31"
     transform="matrix(1.9001813,0,0,1.9001813,-858.0222,-478.60308)" /></g>
<path
   style="font-weight:bold;font-size:105.648px;line-height:1.25;font-family:Orbitron;-inkscape-font-specification:'Orbitron Bold';fill:#bcd4eb;stroke-width:1.11797"
   d="M 161.73843,122.56915 V 46.396943 h 13.94553 v 62.121027 h 62.12103 v 14.05118 z m 96.3509,0 q -4.01462,0 -7.39536,-2.00731 -3.27509,-2.00731 -5.2824,-5.2824 -1.90166,-3.27509 -1.90166,-7.28971 V 84.958464 h 48.38678 v -8.557488 q 0,-0.52824 -0.42259,-0.845184 Q 291.15716,75.1332 290.62892,75.1332 H 243.50991 V 61.293311 h 47.64725 q 4.01462,0 7.28971,2.007312 3.38074,2.007312 5.2824,5.2824 2.00731,3.275089 2.00731,7.289713 v 46.696414 z m 0.52824,-13.83989 h 33.27912 V 97.424928 H 257.3498 v 10.036562 q 0,0.52824 0.31694,0.95083 0.42259,0.31694 0.95083,0.31694 z m 57.69533,13.83989 v 0 -81.348959 h 13.83989 v 43.738273 h 10.88174 l 21.86914,-23.665153 h 14.79072 v 3.803328 l -24.40469,26.834593 24.29904,26.834588 v 3.80333 H 362.90367 L 341.03453,98.904 h -10.88174 v 23.66515 z m 82.34705,0 q -4.01463,0 -7.28972,-2.00731 -3.27508,-2.00731 -5.2824,-5.2824 -2.00731,-3.27509 -2.00731,-7.28971 V 75.872736 q 0,-4.014624 2.00731,-7.289713 2.00732,-3.275088 5.2824,-5.2824 3.27509,-2.007312 7.28972,-2.007312 h 33.06782 q 4.01463,0 7.28971,2.007312 3.38074,2.007312 5.2824,5.2824 2.00732,3.275089 2.00732,7.289713 V 98.904 h -48.38679 v 8.55749 q 0,0.52824 0.31694,0.95083 0.4226,0.31694 0.95084,0.31694 h 47.11901 v 13.83989 h -47.64725 z m -0.73954,-36.131614 h 34.5469 v -10.03656 q 0,-0.52824 -0.42259,-0.845184 -0.31695,-0.422592 -0.84519,-0.422592 h -32.01134 q -0.52824,0 -0.95084,0.422592 -0.31694,0.316944 -0.31694,0.845184 z m 59.58542,36.131614 v 0 -81.348959 h 13.83989 v 43.738273 h 10.88175 L 504.0966,61.293311 h 14.79072 v 3.803328 l -24.40468,26.834593 24.29904,26.834588 v 3.80333 H 504.0966 L 482.22747,98.904 h -10.88175 v 23.66515 z m 82.34705,0 q -4.01463,0 -7.28971,-2.00731 -3.27509,-2.00731 -5.2824,-5.2824 -2.00732,-3.27509 -2.00732,-7.28971 V 75.872736 q 0,-4.014624 2.00732,-7.289713 2.00731,-3.275088 5.2824,-5.2824 3.27508,-2.007312 7.28971,-2.007312 h 33.06782 q 4.01463,0 7.28972,2.007312 3.38073,2.007312 5.2824,5.2824 2.00731,3.275089 2.00731,7.289713 V 98.904 h -48.38679 v 8.55749 q 0,0.52824 0.31695,0.95083 0.42259,0.31694 0.95083,0.31694 h 47.11901 v 13.83989 h -47.64725 z m -0.73954,-36.131614 h 34.5469 v -10.03656 q 0,-0.52824 -0.42259,-0.845184 Q 572.9207,75.1332 572.39246,75.1332 h -32.01134 q -0.52824,0 -0.95083,0.422592 -0.31695,0.316944 -0.31695,0.845184 z m 71.53519,36.131614 q -4.01462,0 -7.28971,-2.00731 -3.27509,-2.00731 -5.2824,-5.2824 -2.00731,-3.27509 -2.00731,-7.28971 V 75.872736 q 0,-4.014624 2.00731,-7.289713 2.00731,-3.275088 5.2824,-5.2824 3.27509,-2.007312 7.28971,-2.007312 h 33.06783 q 4.01462,0 7.28971,2.007312 3.38074,2.007312 5.2824,5.2824 2.00731,3.275089 2.00731,7.289713 V 98.904 H 609.909 v 8.55749 q 0,0.52824 0.31694,0.95083 0.42259,0.31694 0.95083,0.31694 h 47.11901 v 13.83989 H 610.64853 Z M 609.909,86.437536 h 34.54689 v -10.03656 q 0,-0.52824 -0.42259,-0.845184 -0.31694,-0.422592 -0.84518,-0.422592 h -32.01135 q -0.52824,0 -0.95083,0.422592 -0.31694,0.316944 -0.31694,0.845184 z m 59.58542,60.430654 v 0 -85.574879 h 47.64725 q 4.01462,0 7.28971,2.007312 3.38074,2.007312 5.2824,5.2824 2.00731,3.275089 2.00731,7.289713 v 32.116994 q 0,4.01462 -2.00731,7.28971 -1.90166,3.27509 -5.2824,5.2824 -3.27509,2.00731 -7.28971,2.00731 h -33.80736 v 24.29904 z m 15.10767,-38.13893 h 32.01134 q 0.52824,0 0.84518,-0.31694 0.4226,-0.42259 0.4226,-0.95083 V 76.400976 q 0,-0.52824 -0.4226,-0.845184 -0.31694,-0.422592 -0.84518,-0.422592 h -32.01134 q -0.52824,0 -0.95084,0.422592 -0.31694,0.316944 -0.31694,0.845184 v 31.060514 q 0,0.52824 0.31694,0.95083 0.4226,0.31694 0.95084,0.31694 z m 69.30502,13.83989 q -4.01463,0 -7.28971,-2.00731 -3.27509,-2.00731 -5.2824,-5.2824 -2.00732,-3.27509 -2.00732,-7.28971 V 75.872736 q 0,-4.014624 2.00732,-7.289713 2.00731,-3.275088 5.2824,-5.2824 3.27508,-2.007312 7.28971,-2.007312 h 33.06782 q 4.01463,0 7.28972,2.007312 3.38073,2.007312 5.2824,5.2824 2.00731,3.275089 2.00731,7.289713 V 98.904 h -48.38679 v 8.55749 q 0,0.52824 0.31695,0.95083 0.42259,0.31694 0.95083,0.31694 h 47.11901 v 13.83989 h -47.64725 z m -0.73954,-36.131614 h 34.5469 v -10.03656 q 0,-0.52824 -0.42259,-0.845184 -0.31695,-0.422592 -0.84519,-0.422592 h -32.01134 q -0.52824,0 -0.95083,0.422592 -0.31695,0.316944 -0.31695,0.845184 z m 58.70027,36.131614 v 0 -46.696414 q 0,-4.014624 2.00731,-7.289713 2.00732,-3.275088 5.2824,-5.2824 3.38074,-2.007312 7.28972,-2.007312 h 34.01865 V 75.1332 h -33.49041 q -0.52824,0 -0.95084,0.422592 -0.31694,0.316944 -0.31694,0.845184 v 46.168174 z"
   id="text32"
   aria-label="Lakekeeper" /><text
   xml:space="preserve"
   id="text1"
   style="font-style:normal;font-variant:normal;font-weight:bold;font-stretch:normal;font-size:106.667px;font-family:Orbitron;-inkscape-font-specification:'Orbitron Bold';text-align:start;writing-mode:lr-tb;direction:ltr;white-space:pre;shape-inside:url(#rect1);display:inline;fill:#fefefe;stroke-width:1.212"
   transform="translate(-21.175809,-31.082008)" /><text
   xml:space="preserve"
   id="text2"
   style="font-weight:bold;font-size:106.667px;font-family:Orbitron;-inkscape-font-specification:'Orbitron Bold';text-align:start;writing-mode:lr-tb;direction:ltr;white-space:pre;shape-inside:url(#rect2);display:inline;fill:#000000;fill-opacity:1;stroke-width:1.212"
   transform="translate(-21.175809,-31.082008)" /></svg>
